<svg id="Layer_1" data-name="Layer 1" xmlns="http://www.w3.org/2000/svg" viewBox="0 0 42 42">
                     <path d="M21,42A21,21,0,1,1,42,21,21,21,0,0,1,21,42ZM21,2A19,19,0,1,0,40,21,19,19,0,0,0,21,2Z"></path>
                     <path d="M27.06,15.12H14.94a1.5,1.5,0,0,1,0-3H27.06a1.5,1.5,0,0,1,0,3Z"></path>
                     <path d="M30.42,21.84h-18a1.5,1.5,0,1,1,0-3h18a1.5,1.5,0,0,1,0,3Z"></path>
                     <path d="M32.94,28.56H9.06a1.5,1.5,0,0,1,0-3H32.94a1.5,1.5,0,0,1,0,3Z"></path>
                  </svg>