<svg id="Layer_1" data-name="Layer 1" xmlns="http://www.w3.org/2000/svg" viewBox="0 0 41.99 41.99">
                     <path d="M14.28.09A16.47,16.47,0,0,0,8.49,1.81,15.13,15.13,0,0,0,2.42,7.1,13.76,13.76,0,0,0,.71,19.2a14.65,14.65,0,0,0,2.51,4.52,3.34,3.34,0,0,1,.47.64S2.94,25.12,2,26A21.23,21.23,0,0,0,.19,27.79a1.18,1.18,0,0,0,.47,1.66c.31.16.47.16,4.9.16h4.6l.05.32a15.94,15.94,0,0,0,1.42,3.87,16.13,16.13,0,0,0,11.42,8c1,.19,1.05.19,9.49.22s8.47,0,8.8-.14a1.18,1.18,0,0,0,.47-1.66A22.31,22.31,0,0,0,40,38.34a20.58,20.58,0,0,1-1.66-1.61,3.07,3.07,0,0,1,.43-.58,14.56,14.56,0,0,0,3.26-9,14.05,14.05,0,0,0-2.12-7.23,15.63,15.63,0,0,0-4.65-4.73,18.25,18.25,0,0,0-2.92-1.52c-.29-.11-.29-.11-.39-.77A14.93,14.93,0,0,0,24.3,2.13,17.23,17.23,0,0,0,14.28.09Zm3.34,2.46A13.91,13.91,0,0,1,22.52,4a12.21,12.21,0,0,1,7.07,11.39A11.51,11.51,0,0,1,26.22,23a14,14,0,0,1-8.6,4.1c-.49.06-3.16.09-7,.09H4.39l1.14-1.09C6.62,25,6.66,25,6.7,24.59a1.86,1.86,0,0,0,0-.59,5.17,5.17,0,0,0-.9-1.11,11.75,11.75,0,0,1-3.14-6,14,14,0,0,1,0-4.34A12.55,12.55,0,0,1,9.56,4a14.28,14.28,0,0,1,5.25-1.48A17.78,17.78,0,0,1,17.62,2.55ZM32.89,16.6a13.9,13.9,0,0,1,3.65,2.9,12,12,0,0,1,2.81,5.6,14.29,14.29,0,0,1,0,4.13,12.17,12.17,0,0,1-3.13,6c-.41.43-.8.87-.86,1a1.85,1.85,0,0,0-.09.62v.43l1.17,1.14,1.17,1.12H31.39c-3.85,0-6.52,0-7-.09a13.86,13.86,0,0,1-10-5.86,13.52,13.52,0,0,1-1.52-3.17l-.23-.76,2.6-.05a18.39,18.39,0,0,0,5.13-.54,16,16,0,0,0,9.5-6.78A14.84,14.84,0,0,0,32,16.64l.06-.46.22.1C32.34,16.33,32.65,16.47,32.89,16.6Z" transform="translate(-0.01 0)"></path>
                     <path d="M8.1,7.64A1.31,1.31,0,0,0,7.46,8.7a1.29,1.29,0,0,0,.66,1.06c.31.17.47.17,8,.17s7.64,0,8-.17a1.3,1.3,0,0,0,.65-1.06A1.32,1.32,0,0,0,24,7.63c-.32-.17-.46-.17-8-.17S8.4,7.47,8.1,7.64Z" transform="translate(-0.01 0)"></path>
                     <path d="M8.1,12.56a1.31,1.31,0,0,0-.64,1.06,1.29,1.29,0,0,0,.66,1.06c.31.17.47.17,8,.17s7.64,0,8-.17a1.3,1.3,0,0,0,.65-1.06A1.32,1.32,0,0,0,24,12.55c-.32-.16-.46-.16-8-.16S8.4,12.39,8.1,12.56Z" transform="translate(-0.01 0)"></path>
                     <path d="M8.1,17.48a1.33,1.33,0,0,0-.64,1.06,1.3,1.3,0,0,0,.66,1.07c.31.16.47.16,8,.16s7.64,0,8-.16a1.21,1.21,0,0,0,0-2.14c-.32-.16-.46-.16-8-.16S8.4,17.32,8.1,17.48Z" transform="translate(-0.01 0)"></path>
                  </svg>