<svg id="Layer_1" data-name="Layer 1" xmlns="http://www.w3.org/2000/svg" viewBox="0 0 39.04 41.97">
                     <path d="M13.71.12A7.68,7.68,0,0,0,9.57,2.29a7.89,7.89,0,0,0-2.06,3.5,10,10,0,0,0,0,3.81c.89,3.48,3.69,6.75,8.91,10.42,1.1.78,3.37,2.27,3.56,2.34a56.5,56.5,0,0,0,5.22-3.47C28.81,16.15,31,13.63,32.05,11a8.3,8.3,0,0,0,.64-3.57,7.27,7.27,0,0,0-2.3-5.12A7.93,7.93,0,0,0,26.68.19,9.5,9.5,0,0,0,23,.24,9,9,0,0,0,20.49,1.4L20,1.75l-.49-.35A8.56,8.56,0,0,0,17,.25,9.17,9.17,0,0,0,13.71.12Zm2.51,2.46a6.53,6.53,0,0,1,3.21,2.08l.59.66.49-.58a5.58,5.58,0,0,1,4.7-2.25,5.36,5.36,0,0,1,4.33,2.6,5.55,5.55,0,0,1,.56,4c-.72,2.88-3.72,6.11-8.88,9.59a10.1,10.1,0,0,1-1.21.74,29.51,29.51,0,0,1-3.05-2c-4.11-3.06-6.42-5.77-7.06-8.3a6,6,0,0,1,.08-3A5.58,5.58,0,0,1,13,2.86,5.73,5.73,0,0,1,16.22,2.58Z" transform="translate(-0.48 -0.03)"></path>
                     <path d="M35,20.46c-.94.24-1.17.42-4,3.26l-2.71,2.69H27.05l-.12-.29a3.86,3.86,0,0,0-2.23-2C24.18,24,24,24,17,24H9.79L5.13,28.61.48,33.26l4.37,4.38L9.21,42l2.87-2.87L15,36.26h14l4.92-4.95C37,28.18,38.84,26.23,39,26a3.89,3.89,0,0,0,.38-3A3.71,3.71,0,0,0,35,20.46ZM36.55,23A1.35,1.35,0,0,1,37,24.55c0,.1-2.12,2.22-4.62,4.71L27.83,33.8H13.89l-.62.61-.61.62L10,32.4,7.41,29.78,9.09,28.1l1.68-1.69,6.66,0,6.67,0,.31.3a.93.93,0,0,1,.33.78.92.92,0,0,1-.16.75c-.4.59-.32.59-4.56.59H16.23v2.46H20c2.19,0,4,0,4.24-.09a3.9,3.9,0,0,0,2.57-1.95l.21-.42h2.18L32.1,26a37.36,37.36,0,0,1,3.2-3A1.29,1.29,0,0,1,36.55,23Zm-26.5,14.6-.88.88L6.55,35.89,3.92,33.26l.88-.87.89-.89,2.62,2.62,2.63,2.63Z" transform="translate(-0.48 -0.03)"></path>
                  </svg>