<svg id="Layer_1" data-name="Layer 1" xmlns="http://www.w3.org/2000/svg" viewBox="0 0 41.97 41.81">
                     <path d="M18.34.21A21.37,21.37,0,0,0,8,4.58,27,27,0,0,0,4.5,8.05,22.69,22.69,0,0,0,1.25,13.9a25.2,25.2,0,0,0-1,4.15,25.29,25.29,0,0,0-.14,4.76,13.5,13.5,0,0,0,.45,2.61,1,1,0,0,0,1.74,0c.17-.25.17-.58,0-1.64a22.1,22.1,0,0,1-.14-4.47A19,19,0,0,1,16.27,2.7a16,16,0,0,1,4.11-.54,17,17,0,0,1,5.26.55,18.77,18.77,0,0,1,7.49,3.81c1,.81,1,.86,1.45.86s.56-.1,1.24-.76a3,3,0,0,1,.63-.54s.57,6,.54,6-1.4-.1-5-.44l-1-.11.65-.66a3.73,3.73,0,0,0,.71-.9c.11-.43,0-.76-.48-1.19a16.65,16.65,0,0,0-8.67-4,21,21,0,0,0-4.55,0c-1.69.27-2.24.45-2.54.81a1,1,0,0,0,.28,1.5c.32.16.47.15,1.52-.08a14.29,14.29,0,0,1,9.29,1.06,15,15,0,0,1,2.38,1.41l.28.21-.57.59a2.24,2.24,0,0,0-.66,1,1.71,1.71,0,0,0,.76,1.94c.33.2.69.24,5.76.7,2.86.27,3,.26,3.52-.33s.58-.57.16-4.95c-.22-2.35-.4-4-.48-4.13a1.84,1.84,0,0,0-1.87-1c-.45.1-.64.24-1.27.85L34.55,5l-.62-.5A21.1,21.1,0,0,0,23.52.21,28.91,28.91,0,0,0,18.34.21Z" transform="translate(-0.01 -0.09)"></path>
                     <path d="M12.62,7.05A12.3,12.3,0,0,0,9.56,9.43a1,1,0,0,0,0,1,1,1,0,0,0,.89.46c.31,0,.41-.07,1.14-.66A17.29,17.29,0,0,1,13,9.19c.73-.5.85-.67.85-1.16a.9.9,0,0,0-.2-.64A1,1,0,0,0,12.62,7.05Z" transform="translate(-0.01 -0.09)"></path>
                     <path d="M19.38,11.69a10,10,0,0,0-3.63,1.44,13.83,13.83,0,0,0-2.62,2.62,9.6,9.6,0,0,0-.79,9,9.92,9.92,0,0,0,4.89,4.9,9.77,9.77,0,0,0,6.47.39,9.46,9.46,0,0,0,5.77-13.24,8.16,8.16,0,0,0-1.82-2.47,8.88,8.88,0,0,0-5.07-2.66A11.43,11.43,0,0,0,19.38,11.69ZM20,14.07a1,1,0,1,0,2,0v-.38l.38.05a7.28,7.28,0,0,1,3.85,2.06,7.51,7.51,0,0,1,2.06,3.79l.06.35h-.4a1,1,0,0,0-1,.55c-.36.76.16,1.48,1.09,1.5.32,0,.33.12.1.95a7.5,7.5,0,0,1-3.35,4.41,7.6,7.6,0,0,1-2.43.93l-.38.06V27.9c0-.72-.36-1.16-1-1.16s-1,.44-1,1.16v.43l-.38-.06a7.53,7.53,0,0,1-5.91-5.91c-.06-.37-.05-.37.18-.37.72,0,1.18-.35,1.24-.93s-.34-1.13-1.09-1.13h-.39l.06-.35a8.41,8.41,0,0,1,.93-2.38,8.08,8.08,0,0,1,3.28-2.94,7.87,7.87,0,0,1,1.85-.55C20,13.7,20,13.72,20,14.07Z" transform="translate(-0.01 -0.09)"></path>
                     <path d="M20.29,17.18l-.27.28v3.95l.23.24a22.15,22.15,0,0,0,2.31,1.43c2.2,1.27,2.38,1.33,2.87,1.08a1,1,0,0,0,.3-1.5,10.43,10.43,0,0,0-1.55-1c-.74-.42-1.53-.89-1.76-1.05L22,20.34V17.46l-.27-.28A.74.74,0,0,0,21,16.9.74.74,0,0,0,20.29,17.18Z" transform="translate(-0.01 -0.09)"></path>
                     <path d="M40.33,16.09a1,1,0,0,0-.68.61c-.09.22-.09.37,0,.9a19.75,19.75,0,0,1-.19,7.63A18.94,18.94,0,0,1,24.9,39.48a16.72,16.72,0,0,1-3.89.39,18.82,18.82,0,0,1-12.15-4.4c-1-.8-1-.85-1.44-.85s-.56.1-1.24.76c-.41.39-.61.54-.63.46C5.47,35.61,5,30,5,30S6.39,30,8,30.17s2.94.26,3,.26-.18.31-.55.68c-.68.71-.8,1-.72,1.4s.94,1.18,2.35,2.11a16.86,16.86,0,0,0,6.81,2.55,21,21,0,0,0,4.55,0c1.69-.27,2.24-.45,2.54-.81a1,1,0,0,0-.28-1.5c-.32-.16-.47-.15-1.52.08a14.41,14.41,0,0,1-7.59-.37,16,16,0,0,1-4.08-2.1l-.28-.22.54-.54a4,4,0,0,0,.66-.84,1.69,1.69,0,0,0-1.2-2.27c-.73-.16-7.55-.77-7.92-.71a1.75,1.75,0,0,0-1.35,1.3c-.09.33.62,7.89.78,8.27a1.76,1.76,0,0,0,1.38,1c.58.07,1-.14,1.72-.84L7.46,37l.39.33a21.09,21.09,0,0,0,10.69,4.5,27.38,27.38,0,0,0,5.65-.09,20.46,20.46,0,0,0,6.12-2,20.32,20.32,0,0,0,8.17-7.16A20.79,20.79,0,0,0,42,21.66a17.24,17.24,0,0,0-.5-5.08A1,1,0,0,0,40.33,16.09Z" transform="translate(-0.01 -0.09)"></path>
                     <path d="M30.67,31.52a19.08,19.08,0,0,1-1.84,1.42c-.55.35-.69.56-.69,1a1,1,0,0,0,1.22,1,11.58,11.58,0,0,0,3.08-2.38,1,1,0,0,0,0-1,1,1,0,0,0-.89-.46C31.23,31.09,31.11,31.15,30.67,31.52Z" transform="translate(-0.01 -0.09)"></path>
                  </svg>